<?xml version="1.0" encoding="UTF-8" standalone="no"?>
<!DOCTYPE svg PUBLIC "-//W3C//DTD SVG 1.1//EN" "http://www.w3.org/Graphics/SVG/1.1/DTD/svg11.dtd">
<svg version="1.1" xmlns="http://www.w3.org/2000/svg" xmlns:xlink="http://www.w3.org/1999/xlink" preserveAspectRatio="xMidYMid meet" viewBox="0 0 640 640" width="640" height="640"><defs><path d="M1.86 347.96C1.86 490.67 92.84 611.69 218.99 654.36C234.87 657.4 240.69 647.4 240.69 638.83C240.69 631.16 240.42 610.84 240.29 583.92C151.96 603.39 133.33 540.6 133.33 540.6C118.88 503.32 98 493.35 98 493.35C69.23 473.33 100.22 473.75 100.22 473.75C132.11 475.99 148.86 507.02 148.86 507.02C177.18 556.4 223.2 542.13 241.35 533.89C244.21 512.99 252.39 498.78 261.46 490.7C190.94 482.62 116.82 454.85 116.82 331.12C116.82 295.87 129.12 267.06 149.5 244.46C145.92 236.3 135.21 203.47 152.28 158.99C152.28 158.99 178.87 150.34 239.6 192.1C265.01 184.93 292 181.36 318.99 181.2C345.99 181.36 372.98 184.93 398.38 192.1C458.72 150.34 485.31 158.99 485.31 158.99C502.38 203.47 491.67 236.3 488.49 244.46C508.73 267.06 521.04 295.87 521.04 331.12C521.04 455.18 446.81 482.48 376.15 490.42C387.27 500.12 397.59 519.92 397.59 550.18C397.59 593.4 397.19 628.12 397.19 638.61C397.19 647.08 402.75 657.18 419.02 653.95C546.07 611.55 636.98 490.45 636.98 347.96C636.98 169.62 494.79 25.01 319.42 25.01C143.97 25.01 1.86 169.62 1.86 347.96Z" id="b8f2Rn6ewx"></path><linearGradient id="gradientc1aA7K8N1C" gradientUnits="userSpaceOnUse" x1="319.42" y1="25.01" x2="319.42" y2="654.92"><stop style="stop-color: #121214;stop-opacity: 1" offset="0%"></stop><stop style="stop-color: #121214;stop-opacity: 0" offset="100%"></stop></linearGradient></defs><g><g><g><use xlink:href="#b8f2Rn6ewx" opacity="1" fill="url(#gradientc1aA7K8N1C)"></use><g><use xlink:href="#b8f2Rn6ewx" opacity="1" fill-opacity="0" stroke="#000000" stroke-width="1" stroke-opacity="0"></use></g></g></g></g></svg>